<?xml version="1.0" encoding="UTF-8"?>
<svg id="_图层_1" data-name="图层 1" xmlns="http://www.w3.org/2000/svg" width="720" height="720" viewBox="0 0 720 720">
  <rect y="-4" width="720" height="724" fill="#ffffef" stroke-width="0"/>
  <g>
    <path d="m128.381,392.482c-18.001,0-32.594-14.593-32.594-32.594h0c0-18.001,14.593-32.594,32.594-32.594h70.646c.951,0,1.721-.771,1.721-1.721v-21.184c0-9.303-7.542-16.845-16.845-16.845h-110.25c-9.303,0-16.845,7.542-16.845,16.845v111.22c0,9.303,7.542,16.845,16.845,16.845h110.25c9.303,0,16.845-7.542,16.845-16.845v-21.406c0-.951-.771-1.721-1.721-1.721h-70.646Z" fill="#383941" stroke-width="0"/>
    <path d="m435.777,392.482c-18.001,0-32.594-14.593-32.594-32.594h0c0-18.001,14.593-32.594,32.594-32.594h70.646c.951,0,1.721-.771,1.721-1.721v-21.184c0-9.303-7.542-16.845-16.845-16.845h-110.25c-9.303,0-16.845,7.542-16.845,16.845v111.22c0,9.303,7.542,16.845,16.845,16.845h110.25c9.303,0,16.845-7.542,16.845-16.845v-21.406c0-.951-.771-1.721-1.721-1.721h-70.646Z" fill="#383941" stroke-width="0"/>
    <path d="m337.602,287.545h-110.25c-9.303,0-16.845,7.542-16.845,16.845v111.22c0,9.303,7.542,16.845,16.845,16.845h22.531v-72.455h0v-.139h.004c.075-17.937,14.636-32.455,32.59-32.455h0c18.001,0,32.594,14.593,32.594,32.594h0c0,18.001-14.593,32.594-32.594,32.594h0s-.003,0-.005,0l-17.178-.009c-1.237,0-2.24,1.002-2.241,2.239l-.005,37.631h74.554c9.303,0,16.845-7.542,16.845-16.845v-111.22c0-9.303-7.542-16.845-16.845-16.845Z" fill="#383941" stroke-width="0"/>
    <path d="m646.346,288.03h-111.22c-9.303,0-16.845,7.542-16.845,16.845v20.999c0,.846.686,1.532,1.532,1.532h71.061v.004c17.937.075,32.455,14.636,32.455,32.59h0c0,18.001-14.593,32.594-32.594,32.594h0c-17.909,0-32.439-14.446-32.587-32.32v-13.981l.003-5.716h-.003v-.037h-98.57c-10.963,0-19.851,8.887-19.851,19.851h0c0,10.963,8.887,19.851,19.851,19.851h58.702v34.884c0,9.303,7.542,16.845,16.845,16.845h111.22c9.303,0,16.845-7.542,16.845-16.845v-110.25c0-9.303-7.542-16.845-16.845-16.845Z" fill="#383941" stroke-width="0"/>
  </g>
</svg>